inDegrees=no
num_controls=7
num_derivatives=13
num_iterations=104
num_multipliers=7
num_parameters=0
num_slacks=7
num_states=26
objective=0.453015
objective_accelerations=0.048568
objective_balance=0.001059
objective_effort=0.037620
objective_height=0.360146
objective_ligament=0.005622
solver_duration=1187.353816
status=Solve_Succeeded
success=true
DataType=double
version=3
OpenSimVersion=4.5
endheader
time	/jointset/ground_pelvis/pelvis_tilt/value	/jointset/ground_pelvis/pelvis_tx/value	/jointset/ground_pelvis/pelvis_ty/value	/jointset/hip_r/hip_flexion_r/value	/jointset/hip_r/hip_adduction_r/value	/jointset/hip_r/hip_rotation_r/value	/jointset/back/lumbar_extension/value	/jointset/patellofemoral_r/patellar_flexion_r/value	/jointset/knee_r/knee_flexion_r/value	/jointset/knee_r/knee_adduction_r/value	/jointset/knee_r/knee_rotation_r/value	/jointset/ankle_r/ankle_angle_r/value	/jointset/subtalar_r/subtalar_angle_r/value	/jointset/ground_pelvis/pelvis_tilt/speed	/jointset/ground_pelvis/pelvis_tx/speed	/jointset/ground_pelvis/pelvis_ty/speed	/jointset/hip_r/hip_flexion_r/speed	/jointset/hip_r/hip_adduction_r/speed	/jointset/hip_r/hip_rotation_r/speed	/jointset/back/lumbar_extension/speed	/jointset/patellofemoral_r/patellar_flexion_r/speed	/jointset/knee_r/knee_flexion_r/speed	/jointset/knee_r/knee_adduction_r/speed	/jointset/knee_r/knee_rotation_r/speed	/jointset/ankle_r/ankle_angle_r/speed	/jointset/subtalar_r/subtalar_angle_r/speed	/forceset/tau_hip_flexion_r	/forceset/tau_hip_adduction_r	/forceset/tau_hip_rotation_r	/forceset/tau_knee_flexion_r	/forceset/tau_ankle_angle_r	/forceset/tau_subtalar_angle_r	/forceset/tau_lumbar_extension	lambda_cid13_p0	lambda_cid14_p0	lambda_cid14_p1	lambda_cid14_p2	lambda_cid14_p3	lambda_cid14_p4	lambda_cid14_p5	/jointset/ground_pelvis/pelvis_tilt/accel	/jointset/ground_pelvis/pelvis_tx/accel	/jointset/ground_pelvis/pelvis_ty/accel	/jointset/hip_r/hip_flexion_r/accel	/jointset/hip_r/hip_adduction_r/accel	/jointset/hip_r/hip_rotation_r/accel	/jointset/back/lumbar_extension/accel	/jointset/patellofemoral_r/patellar_flexion_r/accel	/jointset/knee_r/knee_flexion_r/accel	/jointset/knee_r/knee_adduction_r/accel	/jointset/knee_r/knee_rotation_r/accel	/jointset/ankle_r/ankle_angle_r/accel	/jointset/subtalar_r/subtalar_angle_r/accel	gamma_cid13_p0	gamma_cid14_p0	gamma_cid14_p1	gamma_cid14_p2	gamma_cid14_p3	gamma_cid14_p4	gamma_cid14_p5
0.5	-0.1303426419872779	0.02218873625365558	0.804266768082714	0.8958778160252276	-0.217734041100888	-0.1375012499954988	-0.6494420838204608	0.966342137046465	0.9663421370464613	-0.07383477297767634	0.174531028529376	0.297358617591533	0.147976469711051	-0.3538225122908508	-0.2045861361202978	-0.5121078826646305	1.876532022926108	-0.04098902421465449	0.1922725924860891	-0.7381623289596093	1.956033874711526	1.956033874711544	-0.411881352080479	-0.0002297414191600832	0.5319826097352918	0.1537150114699769	-0.1942039884266672	0.01233786061279568	0.01731697728309119	-0.2984745726363316	0.0118472802749077	-0.001591197207466529	0.239362759199625	-8.030521924397382	-39.08596244999273	-7.274586449551657	1.284559837716951	-4.375369027156496	-642.5958393453321	60.00025530132243	0.3393805570382722	0.6105315648702199	-0.4035692422803342	-1.320283931307251	-0.1957110935669175	-0.4201652900986443	1.882662769722014	-1.43184782959026	-1.431847829590258	0.5829911904552635	-0.05107182572601802	-0.6282684928378215	-0.4083792606185923	-6.909224459837195e-08	9.95712973091169e-08	1.774664693318323e-06	4.526506527719182e-07	-2.29787405148341e-07	-1.353987373445571e-07	1.20022163874547e-06
0.51	-0.1338631281424573	0.02017358609706109	0.7991267225147373	0.914574195893661	-0.2181541233897212	-0.1356016453486241	-0.6567289065355133	0.9858277616332278	0.9858277616332327	-0.07792461648008085	0.1745285992166464	0.3026459792781305	0.1494920224063239	-0.3502167393452548	-0.1984261753618994	-0.5157833929437199	1.862486357771407	-0.04303149705750053	0.1876571342240818	-0.7191103297471625	1.940824489916952	1.940824489916974	-0.4060180937883834	-0.0002193249758164879	0.5254071416483459	0.1493371486214581	-0.2006301710386947	0.01330589379533699	0.01764107044051228	-0.3036290885924753	0.01104947439541682	-0.001283555293082197	0.2454340108852607	-7.094274946082792	-39.67955685098474	-7.427943356503576	1.518074932372005	-4.321295010030953	-647.770615301619	60.28108757478879	0.3798892232043552	0.6213376662147916	-0.3318922009062455	-1.485328975157082	-0.2089432019787369	-0.4810041403509263	1.930251142576571	-1.605453629029153	-1.605453629028585	0.5986312159507878	0.03277578454808863	-0.6846270940979899	-0.4608944117526282	-5.846689664138295e-08	1.186309871713844e-07	1.798222423706715e-06	5.68951463703855e-07	-2.425229327308895e-07	-1.242315319475727e-07	1.249956651141026e-06
0.52	-0.1373458138562043	0.0182205574150286	0.7939534517879329	0.9331223948770268	-0.2185947159714501	-0.1337479488935891	-0.6638224527293273	1.005153298407116	1.005153298407132	-0.08195369978609185	0.1745274095493881	0.3078650980583634	0.1509621155501548	-0.3462624240042937	-0.1921618412078991	-0.5187529144301315	1.846895845912484	-0.04509108279375854	0.1830909541181078	-0.6995070247118923	1.924016312136852	1.924016312136878	-0.3997293128017244	1.818767486913062e-05	0.5183340284623993	0.1446231011815749	-0.2070563536507171	0.01427392697787924	0.01796516359794685	-0.3087836045486171	0.01025166851592574	-0.0009759133786967015	0.251505262570901	-6.219184712703171	-40.27042886858577	-7.573931463792301	1.742543624001851	-4.294738887035641	-652.9214954166715	60.58434375528869	0.4090890361112969	0.6314062439906057	-0.2623714837448043	-1.629253272151695	-0.199133672249312	-0.4103096588919805	1.992923934286685	-1.751606426695291	-1.751606426695299	0.6680957293679638	-0.005652584257609149	-0.7277975126379742	-0.4756161788914692	-4.441924609540834e-08	1.301411339633933e-07	1.717151804309079e-06	6.236593377710441e-07	-2.411489301862215e-07	-1.127967722037474e-07	1.243593554883611e-06
0.53	-0.1407872949367356	0.01633059112901344	0.788754044544039	0.9515071968515022	-0.2190555431132326	-0.1319389916103122	-0.6707174666428894	1.024302903773448	1.024302903773451	-0.08591814667818337	0.1745285676315681	0.3130111089522843	0.1523840810131651	-0.3419793373803145	-0.1858233511679203	-0.5210066676209226	1.829819492908806	-0.04703864270970548	0.1787725446942829	-0.6794340641319603	1.905648092230342	1.905648092230362	-0.3931093659993768	0.0001488815563277372	0.5107941144158135	0.1397749917528879	-0.2132590453275449	0.01535088648631704	0.01824107724130672	-0.3140933256603393	0.009451781286472538	-0.0007857854306681958	0.2573275600377297	-5.405705002186268	-40.87887490183041	-7.780080518789495	1.983509873805836	-4.156222612753046	-658.1038273050438	60.79333287548663	0.4461059835759699	0.6362320226225279	-0.188618585716283	-1.783563966071275	-0.187035351598625	-0.4318585808037222	2.02373620014468	-1.917922699340647	-1.91792269934155	0.6667673353747759	0.01292895765963351	-0.7782380135643356	-0.4883190250549801	-3.557886499815575e-08	1.378220992597325e-07	1.654581015092325e-06	6.576102205270044e-07	-2.405211573950605e-07	-1.007358177999312e-07	1.233726168183917e-06
0.54	-0.1441843076494205	0.01450424207112225	0.7835357514984431	0.9697138877656224	-0.2195347394942411	-0.1301710688206074	-0.6774099001345927	1.043261128355371	1.043261128355364	-0.08981482946631059	0.1745291323692295	0.3180794907731602	0.1537577832418489	-0.3373687504349445	-0.179438395583105	-0.5225300747705159	1.811273633841311	-0.04876493063890353	0.1748840554034183	-0.6589909403400981	1.885740155255361	1.885740155255375	-0.3861764920087642	-0.0001004812297320343	0.5028082138534096	0.1349704543162946	-0.2194617370043673	0.01642784599475931	0.01851699088469253	-0.3194030467720582	0.008651894057019946	-0.0005956574826328962	0.263149857504563	-4.653706069862079	-41.48554304408854	-7.979799161595388	2.216463578514277	-4.044543708439981	-663.2762621002946	61.02077017257864	0.4745891003894607	0.6406993529578878	-0.1163022755052261	-1.923154484915098	-0.1548792748995336	-0.3243256322999175	2.066956576672767	-2.059549840389326	-2.059549840389329	0.7306811670209533	-0.08166391776127793	-0.8169948158015892	-0.4669017804727245	-3.24997181845957e-08	1.412665233268201e-07	1.612478123096973e-06	6.685959214067114e-07	-2.407190005013965e-07	-8.798205228293348e-08	1.219981694186382e-06
0.55	-0.1475337131080447	0.01274192105995715	0.7783058425043448	0.9877280696903407	-0.2200304007580877	-0.1284410078407022	-0.6838960729937175	1.062012795944397	1.062012795944397	-0.09364100173601189	0.1745265718326328	0.3230658720116226	0.1550832273096975	-0.3324645004610196	-0.1730225309474482	-0.5233317288147245	1.791335098268878	-0.05036509104679636	0.1710830328015406	-0.6381915059646787	1.86435175291252	1.864351752912529	-0.3790434215374253	-0.0003415598955643768	0.4944005691119643	0.1300748582871762	-0.2254461295128223	0.01729720173133144	0.01870566079686497	-0.3247592649868529	0.007851464207795596	-0.0003854307097776387	0.2687384246173496	-3.962858759755608	-42.08508179485938	-8.161316934917695	2.437120854507417	-3.887343365315878	-668.3361193372165	61.28422938696757	0.5055385939371693	0.6424732088442102	-0.04411388880670223	-2.063329608686087	-0.1620788821886965	-0.4148092088048869	2.094255696014035	-2.214720712793072	-2.214720712793821	0.7070034903991718	0.0153662355861136	-0.8628094504128022	-0.5070852841169226	-2.535643374076347e-08	1.46308668160289e-07	1.548438421082655e-06	6.837277816795734e-07	-2.386440322363977e-07	-7.765559506476393e-08	1.207522938586917e-06
0.5600000000000001	-0.1508326369373214	0.01104384733314352	0.7730715135858187	1.005536040956279	-0.2205419625177043	-0.1267503208137493	-0.6901726877434805	1.080543332453683	1.080543332453686	-0.09739536660035814	0.1745237397246934	0.327966144773251	0.1563584760632578	-0.3272724245653671	-0.1665889387128102	-0.523414059656057	1.770031502085298	-0.05194502979287192	0.1670092648127355	-0.6170793184677581	1.841513939307217	1.841513939307221	-0.3718150109377347	-0.0001547954981830612	0.4855865184866466	0.1249313914586364	-0.2314305220212728	0.01816655746790686	0.01889433070901208	-0.3301154832016507	0.007051034358571669	-0.0001752039369163407	0.2743269917301406	-3.332366568964872	-42.68377870638262	-8.336486846118129	2.649684210898344	-3.757034231767227	-673.4042025720477	61.56557758032982	0.5321542847349835	0.644244872754124	0.02756236506995751	-2.196166607144414	-0.150834942536085	-0.3788747096853944	2.129507200972983	-2.349432092881593	-2.349432092881609	0.7497491926912794	0.003904694881464189	-0.8982759925760763	-0.5164759403570378	-1.33361841406048e-08	1.532680779134156e-07	1.458074547045579e-06	7.03835033224221e-07	-2.338416903257972e-07	-7.02419078051881e-08	1.196607045065137e-06
0.5700000000000001	-0.1540782492603888	0.009410131736113892	0.7678399545070291	1.023124321397929	-0.2210688814573976	-0.1251005339795666	-0.6962367869897745	1.09883851189401	1.098838511894022	-0.1010767239554525	0.1745235399791311	0.3327764006007816	0.1575816176361511	-0.3218014829092034	-0.160157094444976	-0.5227767132908041	1.747403020826755	-0.05340528719885547	0.1630133304001527	-0.5957116356396096	1.817301878346421	1.817301878346423	-0.3644063028806618	6.637949184948934e-05	0.476410838310991	0.1197070873765539	-0.2371913336115234	0.01910034406957695	0.01903010089304557	-0.3354800925540367	0.006218231477423223	-3.291267059945498e-05	0.2796614476107554	-2.760857985514954	-43.29473764937627	-8.545382331972966	2.869992291561893	-3.545509772280506	-678.3612658632545	61.77294652255394	0.5618687728758321	0.6421709159651515	0.09996398424460383	-2.329400615899435	-0.1384437190196934	-0.4001970226053742	2.1447330964607	-2.490102352105517	-2.49010235210565	0.7441229094068754	0.0241472219036386	-0.9353166206542676	-0.5235787961925481	-5.009384482716613e-09	1.57432448486489e-07	1.382058008919852e-06	7.124828461042895e-07	-2.294332803457582e-07	-6.275871037409127e-08	1.181317702938905e-06
0.58	-0.1572676912335312	0.007840637924196004	0.7626183975342906	1.040479674680856	-0.2216093674870288	-0.1234887553326216	-0.702086342553242	1.116884968873846	1.116884968873862	-0.1046824559705375	0.1745241366476362	0.3374932791084368	0.1587528819374118	-0.3160383545802883	-0.1537445816904622	-0.5214136384458878	1.723446070340604	-0.05465844778044768	0.1594076273651443	-0.5741705819024645	1.79176944720855	1.791769447208552	-0.3566899429359262	4.487315462128777e-06	0.4669110545115773	0.1145559371321236	-0.2429521452017695	0.02003413067124816	0.01916587107704941	-0.340844701906426	0.005385428596274654	0.0001093785957198278	0.2849959034913747	-2.247047920946529	-43.90609887724782	-8.748651288690244	3.082898081815725	-3.358920746291397	-683.3454499250979	61.9966766829442	0.5905916192852569	0.6403785700900526	0.1727080610026626	-2.461860452665959	-0.1094155776578262	-0.3008284341705124	2.164181382772309	-2.613506128296477	-2.613506128296471	0.8112795702238412	-0.05270873840251356	-0.9630967173276851	-0.501845172826632	-1.492659168250336e-09	1.579567680343769e-07	1.324726373376348e-06	7.062067388630463e-07	-2.255378979962179e-07	-5.518498806845557e-08	1.160332706816178e-06
0.59	-0.160398156256443	0.006335123452957483	0.7574140710729351	1.057589028058079	-0.2221614439935257	-0.1219115773986694	-0.7077196877939868	1.13466964273256	1.134669642732582	-0.1082097479026589	0.1745231575991554	0.3421136191194587	0.1598728990906884	-0.3100118478966029	-0.1473657021994601	-0.5193321825999482	1.698214220760748	-0.05573503234274602	0.1560340825491057	-0.5524827415626508	1.764953834538793	1.764953834538794	-0.3487454193739898	-0.0001914826133783841	0.4571096250621801	0.1094437933042705	-0.2484350314134051	0.02082429413777229	0.0192231017812971	-0.3462046655703795	0.004557784547944723	0.0002656584715188903	0.2900389301885598	-1.789828574309316	-44.50447139333124	-8.93652082654706	3.285294410474919	-3.120779167935298	-688.1461642637959	62.23959122871971	0.6151214020680199	0.6354895411102809	0.2437748806067741	-2.585381846111238	-0.1033612359573274	-0.3547209091548828	2.173444062172168	-2.74731244918308	-2.747312449183332	0.7896398756874587	-0.001528869861268765	-0.9957911138069072	-0.5161696067536834	2.510427098975469e-09	1.581790866373768e-07	1.263742817592897e-06	6.988959094203671e-07	-2.206883948739557e-07	-4.857549326641926e-08	1.13844687781982e-06
